<svg data-v-423bf9ae="" xmlns="http://www.w3.org/2000/svg" viewBox="0 0 527 90" class="iconLeft"><!----><!----><!----><g data-v-423bf9ae="" id="3cb69734-f71b-4674-a422-bb29498cc28b" fill="black" transform="matrix(5.714285714285714,0,0,5.714285714285714,201.32093873194285,-17.51428461074829)"><path d="M12.91 16.19L11.59 13.78L3.28 13.78L1.97 16.19L0.44 16.19L6.56 5.69L8.31 5.69L14.44 16.19L12.91 16.19ZM3.94 12.69L10.94 12.69L7.44 6.56L3.94 12.69ZM28.22 14.22L28.22 16.19L26.91 16.19L26.91 14.22L26.91 14.22Q26.91 13.74 26.89 13.40L26.89 13.40L26.89 13.40Q26.87 13.05 26.77 12.80L26.77 12.80L26.77 12.80Q26.67 12.56 26.46 12.41L26.46 12.41L26.46 12.41Q26.25 12.26 25.86 12.17L25.86 12.17L25.86 12.17Q25.47 12.09 24.87 12.06L24.87 12.06L24.87 12.06Q24.27 12.03 23.40 12.03L23.40 12.03L17.50 12.03L17.50 16.19L16.19 16.19L16.19 5.69L23.62 5.69L23.62 5.69Q24.82 5.69 25.65 5.77L25.65 5.77L25.65 5.77Q26.47 5.86 27.01 6.03L27.01 6.03L27.01 6.03Q27.54 6.20 27.83 6.45L27.83 6.45L27.83 6.45Q28.12 6.71 28.26 7.05L28.26 7.05L28.26 7.05Q28.39 7.39 28.41 7.81L28.41 7.81L28.41 7.81Q28.44 8.24 28.44 8.75L28.44 8.75L28.44 8.75Q28.44 9.41 28.35 9.90L28.35 9.90L28.35 9.90Q28.25 10.40 28.03 10.75L28.03 10.75L28.03 10.75Q27.82 11.09 27.45 11.30L27.45 11.30L27.45 11.30Q27.09 11.51 26.54 11.59L26.54 11.59L26.54 11.59Q27.09 11.68 27.42 11.88L27.42 11.88L27.42 11.88Q27.75 12.09 27.92 12.41L27.92 12.41L27.92 12.41Q28.10 12.74 28.16 13.19L28.16 13.19L28.16 13.19Q28.22 13.64 28.22 14.22L28.22 14.22ZM17.50 6.78L17.50 10.94L23.62 10.94L23.62 10.94Q24.49 10.94 25.09 10.91L25.09 10.91L25.09 10.91Q25.69 10.88 26.08 10.79L26.08 10.79L26.08 10.79Q26.47 10.71 26.68 10.56L26.68 10.56L26.68 10.56Q26.89 10.41 26.99 10.17L26.99 10.17L26.99 10.17Q27.09 9.92 27.11 9.57L27.11 9.57L27.11 9.57Q27.13 9.23 27.13 8.75L27.13 8.75L27.13 8.75Q27.13 8.31 27.11 7.98L27.11 7.98L27.11 7.98Q27.09 7.66 26.99 7.44L26.99 7.44L26.99 7.44Q26.89 7.23 26.68 7.10L26.68 7.10L26.68 7.10Q26.47 6.97 26.08 6.89L26.08 6.89L26.08 6.89Q25.69 6.82 25.09 6.80L25.09 6.80L25.09 6.80Q24.49 6.78 23.62 6.78L23.62 6.78L17.50 6.78ZM36.31 15.31L41.34 5.69L42.88 5.69L37.19 16.19L35.44 16.19L29.75 5.69L31.28 5.69L36.31 15.31ZM56.66 14.22L56.66 16.19L55.34 16.19L55.34 14.22L55.34 14.22Q55.34 13.74 55.33 13.40L55.33 13.40L55.33 13.40Q55.31 13.05 55.21 12.80L55.21 12.80L55.21 12.80Q55.11 12.56 54.90 12.41L54.90 12.41L54.90 12.41Q54.69 12.26 54.30 12.17L54.30 12.17L54.30 12.17Q53.91 12.09 53.31 12.06L53.31 12.06L53.31 12.06Q52.71 12.03 51.84 12.03L51.84 12.03L45.94 12.03L45.94 16.19L44.63 16.19L44.63 5.69L52.06 5.69L52.06 5.69Q53.26 5.69 54.08 5.77L54.08 5.77L54.08 5.77Q54.91 5.86 55.44 6.03L55.44 6.03L55.44 6.03Q55.98 6.20 56.27 6.45L56.27 6.45L56.27 6.45Q56.56 6.71 56.69 7.05L56.69 7.05L56.69 7.05Q56.83 7.39 56.85 7.81L56.85 7.81L56.85 7.81Q56.88 8.24 56.88 8.75L56.88 8.75L56.88 8.75Q56.88 9.41 56.78 9.90L56.78 9.90L56.78 9.90Q56.69 10.40 56.47 10.75L56.47 10.75L56.47 10.75Q56.25 11.09 55.89 11.30L55.89 11.30L55.89 11.30Q55.53 11.51 54.98 11.59L54.98 11.59L54.98 11.59Q55.53 11.68 55.86 11.88L55.86 11.88L55.86 11.88Q56.18 12.09 56.36 12.41L56.36 12.41L56.36 12.41Q56.54 12.74 56.60 13.19L56.60 13.19L56.60 13.19Q56.66 13.64 56.66 14.22L56.66 14.22ZM45.94 6.78L45.94 10.94L52.06 10.94L52.06 10.94Q52.93 10.94 53.53 10.91L53.53 10.91L53.53 10.91Q54.13 10.88 54.52 10.79L54.52 10.79L54.52 10.79Q54.91 10.71 55.12 10.56L55.12 10.56L55.12 10.56Q55.33 10.41 55.43 10.17L55.43 10.17L55.43 10.17Q55.53 9.92 55.55 9.57L55.55 9.57L55.55 9.57Q55.56 9.23 55.56 8.75L55.56 8.75L55.56 8.75Q55.56 8.31 55.55 7.98L55.55 7.98L55.55 7.98Q55.53 7.66 55.43 7.44L55.43 7.44L55.43 7.44Q55.33 7.23 55.12 7.10L55.12 7.10L55.12 7.10Q54.91 6.97 54.52 6.89L54.52 6.89L54.52 6.89Q54.13 6.82 53.53 6.80L53.53 6.80L53.53 6.80Q52.93 6.78 52.06 6.78L52.06 6.78L45.94 6.78Z"></path></g><!----><g data-v-423bf9ae="" id="5d284ac3-f041-43bf-b2af-ee363de17996" transform="matrix(2.5568181264006413,0,0,2.5568181264006413,-35.713067364409454,-82.44090373210686)" stroke="none" fill="black"><path d="M84.6 33.1c-32.1 16.1-68.8.1-69.1 0l-1.5-.7v35.1l1.4-.6c.4-.2 37-16.1 69.1 0l1.4.7V32.4l-1.3.7zM16 35.5c3.1 1.2 11.2 4.1 21.8 5.7v17.7c-10.6 1.6-18.7 4.5-21.8 5.7V35.5zm23.8 23.1V41.4c6.9.9 14.6 1.2 22.7.2v16.7c-8-.9-15.8-.6-22.7.3zM84 64.4c-6.4-3-13-4.8-19.4-5.8V41.4c6.4-1 13-2.8 19.4-5.8v28.8z"></path></g><!----></svg>